<?xml version="1.0" encoding="utf-8"?>
<!-- Generator: Adobe Illustrator 16.0.4, SVG Export Plug-In . SVG Version: 6.00 Build 0)  -->
<!DOCTYPE svg PUBLIC "-//W3C//DTD SVG 1.1//EN" "http://www.w3.org/Graphics/SVG/1.1/DTD/svg11.dtd">
<svg version="1.1" id="Layer_1" xmlns="http://www.w3.org/2000/svg" xmlns:xlink="http://www.w3.org/1999/xlink" x="0px" y="0px"
	 width="495.3px" height="86px" viewBox="0 0 495.3 86" style="enable-background:new 0 0 495.3 86;" xml:space="preserve">
<style type="text/css">
<![CDATA[
	.st0{enable-background:new    ;}
]]>
</style>
<g class="st0">
	<path d="M91.1,45.7H70.3v-0.3l14.5-12.6L70.3,17.4v-0.8h18.3c0.4,0,0.7-0.2,0.7-0.5c0-0.2,0-0.4-0.1-0.8c-0.1-0.3-0.2-0.7-0.2-1H90
		l2.5,7.6h-1.3c-0.4-1.2-0.8-2.1-1.1-2.6c-0.3-0.5-0.7-0.9-1.1-1.1c-0.4-0.2-1.1-0.3-1.8-0.3H76.4l12.3,13.1L76.3,41.7h16l1.2-3.8
		h1.3l-3.2,10.3h-1.2L91.1,45.7z"/>
	<path d="M112.4,46.1c-2,0-3.8-0.4-5.5-1.2c-1.7-0.8-3.1-1.9-4.3-3.4c-1.2-1.4-2.1-3.1-2.8-4.8c-0.6-1.8-1-3.6-1-5.5
		c0-1.9,0.3-3.8,1-5.6s1.6-3.4,2.8-4.8c1.2-1.4,2.6-2.5,4.3-3.3c1.7-0.8,3.5-1.2,5.5-1.2s3.8,0.4,5.5,1.2c1.7,0.8,3.1,1.9,4.3,3.3
		c1.2,1.4,2.1,3,2.7,4.8s1,3.7,1,5.6c0,1.9-0.3,3.7-1,5.6c-0.6,1.8-1.6,3.4-2.8,4.8c-1.2,1.4-2.6,2.5-4.3,3.3
		C116.3,45.7,114.4,46.1,112.4,46.1z M112.4,45.1c1.6,0,2.9-0.3,4-1c1.1-0.7,1.9-1.6,2.5-2.9c0.6-1.2,1.1-2.7,1.3-4.3
		c0.2-1.6,0.4-3.5,0.4-5.7c0-2.2-0.1-4.1-0.4-5.8s-0.7-3.1-1.3-4.3c-0.6-1.2-1.4-2.2-2.5-2.9c-1.1-0.7-2.4-1-4-1c-1.6,0-2.9,0.3-4,1
		c-1.1,0.7-1.9,1.6-2.5,2.9c-0.6,1.2-1,2.7-1.3,4.3c-0.3,1.7-0.4,3.6-0.4,5.8c0,2.9,0.2,5.3,0.7,7.4c0.5,2,1.3,3.6,2.5,4.8
		S110.3,45.1,112.4,45.1z"/>
	<path d="M148.5,45.7h-11.8v-1.2h3.7V33l-5.8-10.8c-0.6-1-1-1.8-1.4-2.2c-0.4-0.4-0.9-0.7-1.5-0.7c-0.4,0-0.8,0.2-1.2,0.7
		s-0.7,0.7-0.9,0.7c-0.3,0-0.4-0.2-0.4-0.6c0-0.7,0.4-1.4,1.2-2.2c0.8-0.8,1.7-1.3,2.8-1.3c0.8,0,1.5,0.1,2,0.3
		c0.5,0.2,1,0.5,1.4,0.9c0.4,0.4,0.8,1.1,1.3,1.9l6.3,11.9l5-11.6c0.4-1.1,1-1.9,1.6-2.5c0.6-0.6,1.3-0.9,2.2-0.9
		c0.6,0,1.2,0.2,1.7,0.6c0.5,0.4,0.9,0.9,1.2,1.5s0.4,1.1,0.4,1.6c0,0.6-0.1,0.9-0.4,0.9c-0.2,0-0.4-0.3-0.7-0.8
		c-0.3-0.5-0.6-0.9-0.9-1.3c-0.3-0.3-0.8-0.5-1.4-0.5c-1.2,0-2.1,0.7-2.8,2.2l-5.3,11.9v11.8h3.6V45.7z"/>
	<path d="M158.7,16.6h11.9c2.1,0,3.9,0.3,5.5,0.9c1.6,0.6,2.8,1.4,3.7,2.4s1.3,2.2,1.3,3.5c0,1.1-0.2,2-0.5,2.8
		c-0.4,0.8-0.9,1.5-1.5,2c-0.7,0.6-1.4,1-2.2,1.3c-0.8,0.3-1.7,0.6-2.8,0.7v0.4c2.3,0.2,4.2,1,5.8,2.2s2.4,2.9,2.4,5.1
		c0,1.8-0.5,3.2-1.5,4.4c-1,1.2-2.3,2-3.9,2.5c-1.6,0.5-3.4,0.8-5.3,0.8h-12.9v-1.2h3.5V17.8h-3.5V16.6z M166.7,17.8v12.3h4.3
		c2,0,3.4-0.5,4.3-1.4c0.8-0.9,1.2-2.5,1.2-4.7c0-1.5-0.2-2.7-0.6-3.6c-0.4-0.9-1-1.6-1.9-2s-1.9-0.6-3.2-0.6H166.7z M166.7,31.3
		v13.2h4.9c1.5,0,2.6-0.2,3.4-0.7c0.8-0.4,1.3-1.1,1.6-2.1c0.3-1,0.5-2.3,0.5-4c0-2.1-0.5-3.7-1.4-4.8c-0.9-1.1-2.3-1.6-4.2-1.6
		H166.7z"/>
	<path d="M193.8,45.7h-8.3v-1.2h3l10.1-28.3h0.9l10,28.3h3.1v1.2h-11.4v-1.2h3.6l-7.2-21.6h-0.1L190,44.5h3.8V45.7z"/>
</g>
<g class="st0">
	<path d="M215.2,27.5c0.9-3.4,2.7-7.8,3.8-9.6l2.3-0.2c-0.9,2.4-1.9,6.6-2.4,9.5L215.2,27.5z"/>
</g>
<g class="st0">
	<path d="M223.6,45.7h-8.9v-1.2h3.6l10.1-28.3h1.3l9.5,28.3h3.2v1.2H231v-1.2h3.3l-3-9.2h-8.4l-3.3,9.2h4V45.7z M230.8,34l-3.6-11
		h-0.1l-3.9,11H230.8z"/>
	<path d="M256.5,45.7h-12.2v-1.2h3.8V17.8h-3.8v-1.2h12.2v1.2h-3.8v12.7l13.1-12.7h-4.6v-1.2h10.2v1.2h-3.7l-11.4,10.8L270,44.5h2.1
		v1.2h-11.4v-1.2h3.8l-11.8-13.9v13.9h3.8V45.7z"/>
	<path d="M286.7,45.7h-12.9v-1.2h4.2V17.8h-4.2v-1.2h12.9v1.2h-4.2v26.7h4.2V45.7z"/>
	<path d="M319.1,45.7h-12.2v-1.2h3.8V17.8h-2.2c-1,0-1.9,0.1-2.5,0.4c-0.6,0.2-1.2,0.6-1.7,1.1c-0.5,0.5-0.9,1.1-1.2,1.8
		c-0.3,0.7-0.8,1.8-1.4,3.3h-1.3l1-7.8h23l1,7.8h-1.3c-0.6-1.5-1.1-2.6-1.4-3.3c-0.3-0.7-0.7-1.3-1.2-1.8c-0.4-0.5-1-0.9-1.7-1.1
		s-1.5-0.4-2.5-0.4h-2.2v26.7h3.8V45.7z"/>
	<path d="M340.8,45.7h-12.9v-1.2h4.2V17.8h-4.2v-1.2h12.9v1.2h-4.2v26.7h4.2V45.7z"/>
	<path d="M352.2,45.7h-9v-1.2h4.1V17.8h-3.9v-1.2h9.2l7.6,22.2h0.1l7.5-22.2h9v1.2H373v26.7h3.9v1.2h-12.2v-1.2h3.8V18.1h-0.1
		l-9.3,27.6h-1l-9.5-27.9h-0.1v26.7h3.7V45.7z"/>
	<path d="M402.8,45.7h-23.2v-1.2h3.5V17.8h-3.5v-1.2h22v7.3h-1c-0.1-1.3-0.5-2.4-1-3.2c-0.5-0.8-1.1-1.5-1.9-1.8
		c-0.7-0.4-1.5-0.7-2.4-0.8c-0.9-0.1-1.8-0.2-2.9-0.2h-4.8v12.5h1.2c1.2,0,2.2-0.2,2.9-0.5c0.7-0.3,1.2-0.8,1.6-1.5
		c0.4-0.7,0.6-1.6,0.8-2.8h1v11.1h-1c-0.1-1.3-0.4-2.2-0.8-3c-0.4-0.7-0.9-1.3-1.6-1.6c-0.7-0.3-1.7-0.5-2.9-0.5h-1.2v12.9h6.8
		c2,0,3.6-0.5,4.9-1.5s2.1-3,2.4-5.8h1V45.7z"/>
	<path d="M426.9,45.7H406v-0.3l14.5-12.6L406,17.4v-0.8h18.3c0.4,0,0.7-0.2,0.7-0.5c0-0.2,0-0.4-0.1-0.8c-0.1-0.3-0.2-0.7-0.2-1h1.1
		l2.5,7.6H427c-0.4-1.2-0.8-2.1-1.1-2.6c-0.3-0.5-0.7-0.9-1.1-1.1c-0.4-0.2-1.1-0.3-1.8-0.3h-10.7l12.3,13.1l-12.4,10.8h16l1.2-3.8
		h1.3l-3.2,10.3h-1.2L426.9,45.7z"/>
</g>
<g class="st0">
	<path d="M83.3,57.3v5.8h-0.6c-0.2-2-0.7-3.4-1.3-4.1S80,57.8,79,57.8c-0.5,0-0.9,0.1-1.2,0.4s-0.6,0.6-0.8,1
		c-0.2,0.4-0.3,0.9-0.3,1.4c0,1.1,0.3,1.8,0.9,2.3c0.6,0.5,1.5,0.9,2.7,1.4c1.2,0.5,2.2,1,2.8,1.7c0.6,0.6,1,1.6,1,3
		c0,0.7-0.1,1.3-0.3,1.9s-0.5,1.1-0.9,1.5c-0.4,0.4-0.9,0.8-1.4,1c-0.5,0.2-1.1,0.4-1.7,0.4c-0.5,0-1-0.1-1.4-0.2
		c-0.4-0.2-0.8-0.4-1.2-0.6s-0.6-0.4-0.8-0.4c-0.2,0-0.5,0.3-0.7,0.9h-0.6V67h0.6c0.1,0.8,0.3,1.5,0.5,2.3c0.2,0.8,0.4,1.4,0.7,1.7
		c0.7,1.2,1.7,1.8,2.9,1.8c0.9,0,1.6-0.4,2.1-1.1c0.5-0.7,0.8-1.5,0.8-2.4c0-1-0.3-1.7-0.9-2.1c-0.6-0.4-1.5-0.9-2.7-1.5
		c-1.3-0.5-2.2-1.1-2.8-1.8c-0.6-0.7-1-1.6-1-2.9c0-0.7,0.2-1.4,0.5-2s0.8-1.1,1.4-1.5c0.6-0.4,1.3-0.6,2.1-0.6
		c0.5,0,0.9,0.1,1.4,0.3c0.5,0.2,0.8,0.4,1.1,0.8c0.1,0.1,0.1,0.1,0.2,0.2c0,0.1,0.1,0.1,0.1,0.1c0,0,0.1,0,0.1,0s0.1,0,0.1-0.1
		s0.1-0.2,0.2-0.3c0.1-0.2,0.2-0.4,0.3-0.6H83.3z"/>
	<path d="M90.4,61.9c0.8,0,1.5,0.3,2.1,0.8c0.6,0.5,1.1,1.2,1.5,2.1c0.4,0.9,0.5,1.9,0.5,3c0,1.1-0.2,2.1-0.5,3
		c-0.4,0.9-0.8,1.6-1.5,2.1c-0.6,0.5-1.3,0.8-2.1,0.8c-0.6,0-1.1-0.1-1.6-0.4c-0.5-0.3-0.9-0.7-1.3-1.2s-0.7-1.2-0.9-1.9
		c-0.2-0.7-0.3-1.5-0.3-2.3c0-0.8,0.1-1.6,0.3-2.3c0.2-0.7,0.5-1.3,0.9-1.9s0.8-0.9,1.3-1.2C89.3,62.1,89.8,61.9,90.4,61.9z
		 M90.4,62.5c-0.8,0-1.4,0.4-1.9,1.3s-0.7,2.2-0.7,3.9c0,1.7,0.2,3,0.7,3.9c0.4,0.9,1.1,1.3,1.9,1.3s1.4-0.4,1.9-1.3
		c0.4-0.9,0.7-2.2,0.7-3.9c0-1.2-0.1-2.2-0.3-3c-0.2-0.8-0.5-1.4-0.9-1.7C91.4,62.7,90.9,62.5,90.4,62.5z"/>
	<path d="M101.8,62.3l2.9-0.1v9.5c0,0.5,0.1,0.8,0.3,0.9c0.2,0.1,0.6,0.2,1.3,0.2v0.5l-2.9,0.1v-1.8h0c-0.4,0.6-0.8,1.1-1.2,1.5
		c-0.4,0.3-1,0.5-1.7,0.5c-1.8,0-2.7-1.2-2.7-3.5v-6.2c0-0.5-0.1-0.8-0.3-0.9s-0.6-0.2-1.2-0.2v-0.5l2.9-0.1v8.7
		c0,0.6,0.1,1.1,0.4,1.4s0.7,0.5,1.2,0.5s0.9-0.2,1.3-0.6c0.4-0.4,0.7-0.9,0.9-1.4c0.2-0.6,0.3-1.2,0.3-1.8v-5.1
		c0-0.5-0.1-0.8-0.3-0.9c-0.2-0.1-0.6-0.2-1.2-0.2V62.3z"/>
	<path d="M112,73.4h-0.5l-3.2-9.6c-0.1-0.5-0.3-0.8-0.6-0.9s-0.5-0.2-0.9-0.2v-0.5h4.4v0.5c-0.6,0-1,0-1.3,0.1
		c-0.2,0.1-0.3,0.3-0.3,0.5c0,0.1,0,0.2,0,0.3c0,0.1,0.1,0.3,0.2,0.5c0.1,0.2,0.2,0.5,0.2,0.7l2.1,6.3h0l1.9-6
		c0.3-0.8,0.4-1.4,0.4-1.8c0-0.3-0.1-0.5-0.3-0.5c-0.2-0.1-0.6-0.1-1.1-0.1v-0.5h3.7v0.5c-0.4,0-0.7,0.1-1,0.2
		c-0.3,0.1-0.5,0.4-0.6,0.7L112,73.4z"/>
	<path d="M117.2,57.9v-0.5l3-0.1v14.4c0,0.3,0,0.5,0.1,0.6c0.1,0.2,0.3,0.3,0.5,0.3s0.5,0.1,0.9,0.2v0.5h-4.5v-0.5
		c0.6,0,1-0.1,1.2-0.3c0.2-0.2,0.3-0.4,0.3-0.8V59c0-0.3,0-0.6-0.1-0.7c-0.1-0.1-0.2-0.2-0.4-0.3C118,58,117.7,57.9,117.2,57.9z"/>
	<path d="M129,66.4v-1.8c0-0.7-0.2-1.2-0.5-1.6s-0.9-0.6-1.7-0.6c-0.6,0-1,0.1-1.4,0.4c-0.4,0.3-0.6,0.5-0.6,0.9c0.6,0,1,0.4,1,1.1
		c0,0.4-0.1,0.6-0.3,0.8c-0.2,0.2-0.4,0.3-0.7,0.3c-0.3,0-0.5-0.1-0.7-0.3c-0.2-0.2-0.3-0.5-0.3-0.9c0-0.4,0.1-0.8,0.3-1.2
		c0.2-0.3,0.4-0.6,0.7-0.8s0.6-0.4,1-0.5c0.4-0.1,0.8-0.2,1.1-0.2c1.2,0,2.1,0.3,2.6,0.9c0.5,0.6,0.8,1.5,0.8,2.7v6.3
		c0,0.5,0.1,0.8,0.4,0.8c0.3,0,0.4-0.1,0.6-0.4s0.2-0.8,0.2-1.7v-0.3h0.5v0.5c0,0.9-0.1,1.6-0.4,2.1s-0.6,0.6-1.2,0.6
		c-0.9,0-1.4-0.7-1.5-2h0c-0.2,0.4-0.4,0.7-0.6,1c-0.3,0.3-0.6,0.6-0.9,0.8s-0.8,0.3-1.2,0.3c-0.9,0-1.5-0.2-2-0.7
		c-0.5-0.5-0.7-1.1-0.7-2c0-0.7,0.2-1.2,0.5-1.7c0.3-0.5,0.8-0.9,1.3-1.2s1-0.6,1.5-0.8S128.1,66.7,129,66.4z M129,69v-2
		c-0.9,0.3-1.6,0.5-2.2,0.8s-1,0.7-1.3,1.2S125,70.2,125,71c0,0.5,0.1,0.9,0.4,1.3c0.3,0.3,0.6,0.5,1.1,0.5c0.7,0,1.3-0.4,1.8-1.1
		C128.7,70.9,129,70,129,69z"/>
	<path d="M138.3,62.2h4.1v0.5c-0.5,0.1-1,0.3-1.4,0.6s-0.9,0.7-1.4,1.3l-1,1.2l3,6.1c0.2,0.3,0.3,0.5,0.5,0.7
		c0.2,0.1,0.5,0.2,0.9,0.2v0.5h-2.3l-3.1-6.4l-1.2,1.4v3.3c0,0.3,0,0.5,0.1,0.6c0.1,0.2,0.3,0.3,0.5,0.3s0.5,0.1,0.9,0.2v0.5h-4.5
		v-0.5c0.6,0,1-0.1,1.2-0.3c0.2-0.2,0.3-0.4,0.3-0.8V59c0-0.3,0-0.6-0.1-0.7c-0.1-0.1-0.2-0.2-0.4-0.3c-0.2-0.1-0.5-0.1-1-0.1v-0.5
		l3-0.1v10.1l2.8-3.2c0.4-0.4,0.6-0.8,0.6-1c0-0.4-0.5-0.6-1.4-0.6V62.2z"/>
	<path d="M144.4,62.8v-0.5l3-0.1v9.5c0,0.3,0,0.5,0.1,0.6c0.1,0.2,0.3,0.3,0.5,0.3s0.5,0.1,0.9,0.2v0.5h-4.5v-0.5
		c0.6,0,1-0.1,1.2-0.3c0.2-0.2,0.3-0.4,0.3-0.8v-7.8c0-0.5-0.1-0.8-0.3-0.9S145.1,62.8,144.4,62.8z M146.5,57.3
		c0.3,0,0.6,0.1,0.7,0.3s0.3,0.5,0.3,0.9c0,0.3-0.1,0.6-0.3,0.8c-0.2,0.2-0.4,0.3-0.7,0.3c-0.3,0-0.5-0.1-0.7-0.3
		c-0.2-0.2-0.3-0.5-0.3-0.8c0-0.4,0.1-0.6,0.3-0.9S146.2,57.3,146.5,57.3z"/>
	<path d="M163.6,73.3h-5.5v-0.5c0.8-0.1,1.4-0.2,1.6-0.3c0.2-0.1,0.3-0.4,0.3-0.7V58.1c-0.8,0-1.4,0-1.8,0.1s-0.8,0.3-1.1,0.6
		c-0.3,0.3-0.5,0.8-0.7,1.5c-0.2,0.7-0.4,1.6-0.5,2.8h-0.5v-5.8h10.8v5.8h-0.5c-0.2-1.6-0.4-2.7-0.7-3.4c-0.3-0.7-0.7-1.1-1.2-1.3
		s-1.2-0.3-2.2-0.3v13.7c0,0.4,0.1,0.6,0.3,0.7c0.2,0.1,0.8,0.2,1.6,0.3V73.3z"/>
	<path d="M167.8,62.8v-0.5l3-0.1v9.5c0,0.3,0,0.5,0.1,0.6c0.1,0.2,0.3,0.3,0.5,0.3s0.5,0.1,0.9,0.2v0.5h-4.5v-0.5
		c0.6,0,1-0.1,1.2-0.3c0.2-0.2,0.3-0.4,0.3-0.8v-7.8c0-0.5-0.1-0.8-0.3-0.9S168.5,62.8,167.8,62.8z M169.9,57.3
		c0.3,0,0.6,0.1,0.7,0.3s0.3,0.5,0.3,0.9c0,0.3-0.1,0.6-0.3,0.8c-0.2,0.2-0.4,0.3-0.7,0.3c-0.3,0-0.5-0.1-0.7-0.3
		c-0.2-0.2-0.3-0.5-0.3-0.8c0-0.4,0.1-0.6,0.3-0.9S169.6,57.3,169.9,57.3z"/>
	<path d="M175.3,71.7v-7.8c0-0.5-0.1-0.8-0.3-0.9s-0.6-0.2-1.4-0.2v-0.5l3.1-0.1v1.6h0c0.2-0.5,0.5-1,1-1.3s1-0.5,1.6-0.5
		c0.6,0,1.1,0.2,1.6,0.6s0.8,0.9,0.9,1.5h0c0.2-0.6,0.5-1,1-1.4s1.1-0.6,1.7-0.6c1,0,1.7,0.3,2.2,0.9s0.7,1.5,0.7,2.6v6.3
		c0,0.3,0,0.5,0.1,0.6c0.1,0.2,0.3,0.3,0.5,0.3c0.2,0.1,0.5,0.1,0.9,0.2v0.5h-3V65c0-1.6-0.6-2.4-1.8-2.4c-0.6,0-1.1,0.3-1.6,0.8
		c-0.4,0.5-0.6,1.3-0.6,2.1v6.1c0,0.3,0,0.5,0.1,0.6c0.1,0.2,0.2,0.3,0.5,0.3c0.2,0.1,0.5,0.1,0.9,0.2v0.5h-2.9V65
		c0-0.7-0.1-1.3-0.4-1.7s-0.7-0.6-1.2-0.6c-0.3,0-0.6,0.1-0.9,0.2c-0.3,0.2-0.5,0.4-0.7,0.7c-0.2,0.3-0.4,0.7-0.5,1.2
		c-0.1,0.5-0.2,1-0.2,1.7v5.2c0,0.3,0.1,0.5,0.2,0.6c0.1,0.2,0.3,0.3,0.5,0.3s0.6,0.1,1,0.2v0.5h-4.8v-0.5c0.4,0,0.8-0.1,1-0.2
		s0.4-0.2,0.5-0.3C175.3,72.2,175.3,72,175.3,71.7z"/>
	<path d="M198.8,67.5h-6.4c0,3.7,0.9,5.5,2.7,5.5c1,0,1.7-0.4,2.1-1.1c0.4-0.7,0.7-1.6,0.9-2.6l0.6,0.1c-0.2,1.2-0.5,2.2-1.1,3
		c-0.5,0.8-1.4,1.2-2.5,1.2c-0.6,0-1.2-0.1-1.8-0.4c-0.6-0.3-1-0.7-1.4-1.3c-0.4-0.6-0.7-1.2-0.9-1.9c-0.2-0.7-0.3-1.5-0.3-2.3
		c0-1,0.1-1.9,0.4-2.8c0.3-0.9,0.8-1.6,1.4-2.2s1.4-0.8,2.3-0.8c0.7,0,1.3,0.2,1.8,0.5c0.5,0.3,1,0.8,1.3,1.3
		c0.3,0.5,0.6,1.1,0.7,1.8C198.7,66.2,198.8,66.8,198.8,67.5z M192.4,66.9h4.6c0-0.8-0.1-1.6-0.2-2.3s-0.4-1.2-0.8-1.5
		c-0.3-0.4-0.8-0.6-1.3-0.6c-0.8,0-1.4,0.4-1.8,1.2C192.6,64.5,192.4,65.5,192.4,66.9z"/>
	<path d="M200.9,69.2h0.6c0.1,0.6,0.2,1.2,0.4,1.8c0.2,0.5,0.4,1,0.8,1.4c0.4,0.4,0.8,0.6,1.4,0.6c0.7,0,1.2-0.2,1.6-0.7
		s0.5-1,0.5-1.7c0-0.7-0.2-1.1-0.6-1.5c-0.4-0.3-1-0.7-1.9-1.1c-0.9-0.4-1.5-0.8-2-1.3c-0.5-0.5-0.7-1.1-0.7-2c0-0.5,0.1-1,0.4-1.5
		s0.6-0.8,1-1.1c0.4-0.3,0.9-0.4,1.4-0.4c0.4,0,0.7,0,1,0.1c0.3,0.1,0.6,0.2,0.8,0.4c0.1,0,0.1,0.1,0.1,0.1c0,0,0.1,0.1,0.1,0.1
		c0,0,0.1,0,0.1,0.1c0,0,0,0,0.1,0c0,0,0.1-0.1,0.2-0.2l0.2-0.3h0.5v3.6h-0.5c-0.1-0.8-0.2-1.4-0.5-1.9c-0.3-0.5-0.6-0.8-0.9-1
		c-0.3-0.2-0.7-0.3-1.1-0.3c-0.5,0-0.9,0.2-1.2,0.6c-0.3,0.4-0.5,0.8-0.5,1.3c0,0.7,0.2,1.2,0.6,1.5s1.1,0.7,2,1
		c0.9,0.4,1.6,0.8,2,1.2c0.5,0.5,0.7,1.1,0.7,2.1c0,0.6-0.2,1.2-0.5,1.7c-0.3,0.5-0.7,0.9-1.2,1.2c-0.5,0.3-1.1,0.4-1.6,0.4
		c-0.6,0-1.2-0.2-1.7-0.6c-0.1-0.1-0.2-0.1-0.3-0.2c-0.1-0.1-0.2-0.1-0.2-0.1c-0.1,0-0.3,0.2-0.5,0.7h-0.5V69.2z"/>
	<path d="M224.8,66.3l0.8,0.8c-0.4,0.6-0.8,1.1-1.3,1.5c-0.4,0.4-1,0.5-1.6,0.5c-0.2,0-0.4,0-0.6-0.1s-0.4-0.1-0.7-0.2
		s-0.5-0.2-0.6-0.3c-0.2-0.1-0.3-0.2-0.5-0.3c-1-0.5-1.9-0.8-2.6-0.8c-0.8,0-1.4,0.6-1.9,1.7l-0.8-0.8c0.7-1.3,1.6-2,2.9-2
		c0.6,0,1.5,0.3,2.7,0.8c0.2,0.1,0.4,0.2,0.6,0.3c0.2,0.1,0.4,0.2,0.7,0.3c0.2,0.1,0.4,0.2,0.6,0.2c0.1,0,0.3,0.1,0.4,0.1
		c0.4,0,0.8-0.2,1.1-0.5C224.2,67.2,224.5,66.8,224.8,66.3z"/>
	<path d="M241.9,57.3v5.8h-0.6c-0.2-2-0.7-3.4-1.3-4.1s-1.4-1.2-2.3-1.2c-0.5,0-0.9,0.1-1.2,0.4s-0.6,0.6-0.8,1
		c-0.2,0.4-0.3,0.9-0.3,1.4c0,1.1,0.3,1.8,0.9,2.3c0.6,0.5,1.5,0.9,2.7,1.4c1.2,0.5,2.2,1,2.8,1.7c0.6,0.6,1,1.6,1,3
		c0,0.7-0.1,1.3-0.3,1.9s-0.5,1.1-0.9,1.5c-0.4,0.4-0.9,0.8-1.4,1c-0.5,0.2-1.1,0.4-1.7,0.4c-0.5,0-1-0.1-1.4-0.2
		c-0.4-0.2-0.8-0.4-1.2-0.6s-0.6-0.4-0.8-0.4c-0.2,0-0.5,0.3-0.7,0.9h-0.6V67h0.6c0.1,0.8,0.3,1.5,0.5,2.3c0.2,0.8,0.4,1.4,0.7,1.7
		c0.7,1.2,1.7,1.8,2.9,1.8c0.9,0,1.6-0.4,2.1-1.1c0.5-0.7,0.8-1.5,0.8-2.4c0-1-0.3-1.7-0.9-2.1c-0.6-0.4-1.5-0.9-2.7-1.5
		c-1.3-0.5-2.2-1.1-2.8-1.8c-0.6-0.7-1-1.6-1-2.9c0-0.7,0.2-1.4,0.5-2s0.8-1.1,1.4-1.5c0.6-0.4,1.3-0.6,2.1-0.6
		c0.5,0,0.9,0.1,1.4,0.3c0.5,0.2,0.8,0.4,1.1,0.8c0.1,0.1,0.1,0.1,0.2,0.2c0,0.1,0.1,0.1,0.1,0.1c0,0,0.1,0,0.1,0s0.1,0,0.1-0.1
		s0.1-0.2,0.2-0.3c0.1-0.2,0.2-0.4,0.3-0.6H241.9z"/>
	<path d="M249.5,62.2h4.1v0.5c-0.5,0.1-1,0.3-1.4,0.6c-0.4,0.3-0.9,0.7-1.4,1.3l-1,1.2l3,6.1c0.2,0.3,0.3,0.5,0.5,0.7
		c0.2,0.1,0.5,0.2,0.9,0.2v0.5h-2.3l-3.1-6.4l-1.2,1.4v3.3c0,0.3,0,0.5,0.1,0.6c0.1,0.2,0.3,0.3,0.5,0.3c0.2,0.1,0.5,0.1,0.9,0.2
		v0.5h-4.5v-0.5c0.6,0,1-0.1,1.2-0.3c0.2-0.2,0.3-0.4,0.3-0.8V59c0-0.3,0-0.6-0.1-0.7c-0.1-0.1-0.2-0.2-0.4-0.3
		c-0.2-0.1-0.5-0.1-1-0.1v-0.5l3-0.1v10.1l2.8-3.2c0.4-0.4,0.6-0.8,0.6-1c0-0.4-0.5-0.6-1.4-0.6V62.2z"/>
	<path d="M264.1,67.5h-6.4c0,3.7,0.9,5.5,2.7,5.5c1,0,1.7-0.4,2.1-1.1c0.4-0.7,0.7-1.6,0.9-2.6l0.6,0.1c-0.2,1.2-0.5,2.2-1.1,3
		c-0.5,0.8-1.4,1.2-2.5,1.2c-0.6,0-1.2-0.1-1.8-0.4s-1-0.7-1.4-1.3c-0.4-0.6-0.7-1.2-0.9-1.9c-0.2-0.7-0.3-1.5-0.3-2.3
		c0-1,0.1-1.9,0.4-2.8c0.3-0.9,0.8-1.6,1.4-2.2s1.4-0.8,2.3-0.8c0.7,0,1.3,0.2,1.8,0.5s1,0.8,1.3,1.3c0.3,0.5,0.6,1.1,0.7,1.8
		C264,66.2,264.1,66.8,264.1,67.5z M257.7,66.9h4.6c0-0.8-0.1-1.6-0.2-2.3c-0.2-0.7-0.4-1.2-0.8-1.5s-0.8-0.6-1.3-0.6
		c-0.8,0-1.4,0.4-1.8,1.2C257.9,64.5,257.7,65.5,257.7,66.9z"/>
	<path d="M276,62.2h3.5v0.5c-0.4,0-0.7,0.1-0.9,0.2s-0.4,0.4-0.5,0.7l-3,9.8h-0.5l-2.3-8.1h0l-2.5,8.1h-0.5l-2.9-9.8
		c-0.1-0.3-0.2-0.6-0.4-0.7c-0.2-0.1-0.5-0.2-1-0.2v-0.5h4.3v0.5c-0.5,0-0.9,0.1-1.1,0.2s-0.3,0.3-0.3,0.6c0,0.2,0.1,0.6,0.3,1.2
		c0.2,0.6,0.8,2.7,1.8,6.3h0c0.9-2.8,1.4-4.4,1.5-4.9c0.2-0.5,0.3-0.9,0.3-1.2c0.1-0.3,0.1-0.5,0.1-0.7c0-0.1-0.1-0.3-0.2-0.6
		c-0.1-0.3-0.2-0.5-0.3-0.5c-0.2-0.2-0.6-0.3-1.1-0.3v-0.5h4.5v0.5c-0.6,0-1,0.1-1.2,0.2c-0.2,0.1-0.3,0.3-0.3,0.6
		c0,0.1,0,0.3,0.1,0.5c0,0.2,0.1,0.6,0.3,1.2s0.4,1.4,0.7,2.4s0.6,2.1,1,3.3h0c0.1-0.2,0.2-0.8,0.5-1.7s0.5-1.8,0.8-2.9
		s0.5-1.7,0.6-2.2c0.1-0.4,0.2-0.7,0.2-0.7c0-0.3-0.1-0.5-0.3-0.6c-0.2-0.1-0.5-0.1-1.1-0.1V62.2z"/>
	<path d="M288.3,67.5h-6.4c0,3.7,0.9,5.5,2.7,5.5c1,0,1.7-0.4,2.1-1.1c0.4-0.7,0.7-1.6,0.9-2.6l0.6,0.1c-0.2,1.2-0.5,2.2-1.1,3
		c-0.5,0.8-1.4,1.2-2.5,1.2c-0.6,0-1.2-0.1-1.8-0.4s-1-0.7-1.4-1.3c-0.4-0.6-0.7-1.2-0.9-1.9c-0.2-0.7-0.3-1.5-0.3-2.3
		c0-1,0.1-1.9,0.4-2.8c0.3-0.9,0.8-1.6,1.4-2.2s1.4-0.8,2.3-0.8c0.7,0,1.3,0.2,1.8,0.5s1,0.8,1.3,1.3c0.3,0.5,0.6,1.1,0.7,1.8
		C288.2,66.2,288.3,66.8,288.3,67.5z M281.9,66.9h4.6c0-0.8-0.1-1.6-0.2-2.3c-0.2-0.7-0.4-1.2-0.8-1.5s-0.8-0.6-1.3-0.6
		c-0.8,0-1.4,0.4-1.8,1.2C282.1,64.5,281.9,65.5,281.9,66.9z"/>
	<path d="M290.1,62.8v-0.5l2.8-0.1v2.5h0c0.1-0.3,0.2-0.5,0.3-0.9c0.1-0.3,0.3-0.6,0.5-0.9c0.2-0.3,0.4-0.5,0.7-0.7s0.6-0.3,1-0.3
		c0.5,0,0.8,0.2,1.1,0.5c0.2,0.3,0.4,0.8,0.4,1.3c0,0.4-0.1,0.7-0.2,0.9c-0.2,0.2-0.4,0.3-0.6,0.3s-0.5-0.1-0.6-0.3
		c-0.2-0.2-0.2-0.4-0.2-0.7c0-0.3,0.1-0.5,0.2-0.7c0.2-0.2,0.4-0.3,0.6-0.3c-0.1-0.3-0.3-0.5-0.7-0.5c-0.4,0-0.8,0.3-1.1,0.8
		s-0.7,1.2-0.9,2.1c-0.2,0.9-0.3,1.8-0.3,2.8v3.5c0,0.3,0,0.5,0.1,0.6c0.1,0.2,0.3,0.3,0.5,0.3c0.2,0.1,0.5,0.1,1,0.2v0.5h-4.4v-0.5
		c0.5,0,0.9-0.1,1.1-0.3c0.2-0.2,0.3-0.4,0.3-0.8v-7.8c0-0.5-0.1-0.8-0.3-0.9S290.7,62.8,290.1,62.8z"/>
	<path d="M306.2,67.5h-6.4c0,3.7,0.9,5.5,2.7,5.5c1,0,1.7-0.4,2.1-1.1c0.4-0.7,0.7-1.6,0.9-2.6l0.6,0.1c-0.2,1.2-0.5,2.2-1.1,3
		c-0.5,0.8-1.4,1.2-2.5,1.2c-0.6,0-1.2-0.1-1.8-0.4c-0.6-0.3-1-0.7-1.4-1.3c-0.4-0.6-0.7-1.2-0.9-1.9c-0.2-0.7-0.3-1.5-0.3-2.3
		c0-1,0.1-1.9,0.4-2.8s0.8-1.6,1.4-2.2c0.6-0.6,1.4-0.8,2.3-0.8c0.7,0,1.3,0.2,1.8,0.5c0.5,0.3,1,0.8,1.3,1.3
		c0.3,0.5,0.6,1.1,0.7,1.8C306.1,66.2,306.2,66.8,306.2,67.5z M299.8,66.9h4.6c0-0.8-0.1-1.6-0.2-2.3s-0.4-1.2-0.8-1.5
		c-0.3-0.4-0.8-0.6-1.3-0.6c-0.8,0-1.4,0.4-1.8,1.2C300,64.5,299.8,65.5,299.8,66.9z"/>
	<path d="M317.6,73.3l-2.8,0.1v-1.7h0c-0.2,0.5-0.6,0.9-1,1.3s-1,0.6-1.6,0.6c-0.7,0-1.4-0.3-1.9-0.8c-0.6-0.5-1-1.2-1.4-2.1
		c-0.3-0.9-0.5-1.9-0.5-3c0-1.1,0.2-2.1,0.5-3c0.4-0.9,0.8-1.6,1.4-2.1c0.6-0.5,1.2-0.8,1.9-0.8c0.6,0,1.1,0.2,1.5,0.5
		s0.7,0.8,1,1.4h0.1V59c0-0.3,0-0.6-0.1-0.7c-0.1-0.1-0.2-0.2-0.4-0.3c-0.2-0.1-0.5-0.1-1-0.1v-0.5l2.9-0.1v14.3
		c0,0.5,0.1,0.8,0.2,0.9c0.2,0.1,0.5,0.2,1.1,0.2V73.3z M309.9,67.8c0,1.7,0.2,3,0.6,3.9c0.4,0.9,1,1.3,1.7,1.3
		c0.5,0,0.9-0.2,1.3-0.5c0.4-0.4,0.7-0.9,0.9-1.7c0.2-0.8,0.3-1.8,0.3-3c0-1.2-0.1-2.1-0.3-2.9c-0.2-0.8-0.5-1.4-0.9-1.7
		c-0.4-0.4-0.8-0.6-1.3-0.6c-0.7,0-1.3,0.4-1.8,1.3C310.2,64.8,309.9,66.1,309.9,67.8z"/>
	<path d="M320.6,77.3l-0.5-0.3c0.8-1.2,1.2-2.2,1.2-3.2c0-0.1,0-0.1,0-0.2c0,0,0-0.1,0-0.1c0,0-0.1,0-0.2,0s-0.1,0-0.2,0
		c-0.3,0-0.6-0.1-0.8-0.3s-0.3-0.6-0.3-1c0-0.4,0.1-0.7,0.3-0.9s0.4-0.3,0.7-0.3c0.4,0,0.6,0.2,0.9,0.7c0.2,0.4,0.3,1,0.3,1.8
		C322,74.8,321.5,76.1,320.6,77.3z"/>
	<path d="M333.8,73.3h-4.5v-0.5c0.6,0,1-0.1,1.2-0.3c0.2-0.2,0.3-0.4,0.3-0.8v-7.8c0-0.5-0.1-0.8-0.3-0.9s-0.6-0.2-1.2-0.2v-0.5
		l2.9-0.1v1.7h0c0.3-0.6,0.7-1.1,1.2-1.4s1-0.6,1.6-0.6c0.6,0,1.1,0.1,1.5,0.4s0.8,0.7,1,1.3s0.3,1.2,0.3,2v6c0,0.4,0.1,0.7,0.3,0.8
		c0.2,0.2,0.6,0.3,1.2,0.3v0.5h-2.9V65c0-0.7-0.1-1.3-0.4-1.7c-0.3-0.4-0.7-0.6-1.2-0.6c-0.5,0-0.9,0.2-1.3,0.6
		c-0.4,0.4-0.7,0.8-0.9,1.4s-0.3,1.1-0.3,1.6v5.5c0,0.3,0,0.5,0.1,0.6c0.1,0.2,0.3,0.3,0.5,0.3c0.2,0.1,0.5,0.1,0.9,0.2V73.3z"/>
	<path d="M345.1,61.9c0.8,0,1.5,0.3,2.1,0.8c0.6,0.5,1.1,1.2,1.5,2.1c0.4,0.9,0.5,1.9,0.5,3c0,1.1-0.2,2.1-0.5,3
		c-0.4,0.9-0.8,1.6-1.5,2.1c-0.6,0.5-1.3,0.8-2.1,0.8c-0.6,0-1.1-0.1-1.6-0.4s-0.9-0.7-1.3-1.2s-0.7-1.2-0.9-1.9
		c-0.2-0.7-0.3-1.5-0.3-2.3c0-0.8,0.1-1.6,0.3-2.3c0.2-0.7,0.5-1.3,0.9-1.9c0.4-0.5,0.8-0.9,1.3-1.2C344,62.1,344.6,61.9,345.1,61.9
		z M345.1,62.5c-0.8,0-1.4,0.4-1.9,1.3s-0.7,2.2-0.7,3.9c0,1.7,0.2,3,0.7,3.9c0.4,0.9,1.1,1.3,1.9,1.3s1.4-0.4,1.9-1.3
		c0.4-0.9,0.7-2.2,0.7-3.9c0-1.2-0.1-2.2-0.3-3c-0.2-0.8-0.5-1.4-0.9-1.7S345.7,62.5,345.1,62.5z"/>
	<path d="M356.6,63h-2.8v8.2c0,0.6,0.1,1,0.3,1.3c0.2,0.3,0.5,0.4,0.9,0.4c0.8,0,1.3-0.6,1.3-1.8l0.1-2h0.6l-0.1,2
		c0,0.8-0.2,1.4-0.6,1.8c-0.4,0.4-0.9,0.7-1.6,0.7c-0.8,0-1.4-0.2-1.8-0.7c-0.4-0.4-0.6-1.1-0.6-2.1V63h-1.4v-0.7
		c0.4-0.1,0.8-0.3,1.1-0.7c0.3-0.3,0.6-0.8,0.7-1.4c0.2-0.6,0.3-1.4,0.4-2.3h0.6v4.2h2.8V63z"/>
	<path d="M363.7,69.2h0.6c0.1,0.6,0.2,1.2,0.4,1.8c0.2,0.5,0.4,1,0.8,1.4c0.4,0.4,0.8,0.6,1.4,0.6c0.7,0,1.2-0.2,1.6-0.7
		c0.3-0.4,0.5-1,0.5-1.7c0-0.7-0.2-1.1-0.6-1.5c-0.4-0.3-1-0.7-1.9-1.1c-0.9-0.4-1.5-0.8-2-1.3c-0.5-0.5-0.7-1.1-0.7-2
		c0-0.5,0.1-1,0.4-1.5c0.2-0.5,0.6-0.8,1-1.1c0.4-0.3,0.9-0.4,1.4-0.4c0.4,0,0.7,0,1,0.1c0.3,0.1,0.6,0.2,0.8,0.4
		c0.1,0,0.1,0.1,0.1,0.1c0,0,0.1,0.1,0.1,0.1s0.1,0,0.1,0.1c0,0,0,0,0.1,0c0,0,0.1-0.1,0.2-0.2l0.2-0.3h0.5v3.6h-0.5
		c-0.1-0.8-0.2-1.4-0.5-1.9c-0.3-0.5-0.6-0.8-0.9-1c-0.3-0.2-0.7-0.3-1.1-0.3c-0.5,0-0.9,0.2-1.2,0.6c-0.3,0.4-0.5,0.8-0.5,1.3
		c0,0.7,0.2,1.2,0.6,1.5c0.4,0.3,1.1,0.7,2,1c0.9,0.4,1.6,0.8,2.1,1.2c0.5,0.5,0.7,1.1,0.7,2.1c0,0.6-0.2,1.2-0.5,1.7
		c-0.3,0.5-0.7,0.9-1.2,1.2c-0.5,0.3-1.1,0.4-1.6,0.4c-0.6,0-1.2-0.2-1.7-0.6c-0.1-0.1-0.2-0.1-0.3-0.2c-0.1-0.1-0.2-0.1-0.2-0.1
		c-0.1,0-0.3,0.2-0.5,0.7h-0.5V69.2z"/>
	<path d="M376.8,62.2h4.1v0.5c-0.5,0.1-1,0.3-1.4,0.6s-0.9,0.7-1.4,1.3l-1,1.2l3,6.1c0.2,0.3,0.3,0.5,0.5,0.7
		c0.2,0.1,0.5,0.2,0.9,0.2v0.5h-2.3l-3.1-6.4l-1.2,1.4v3.3c0,0.3,0,0.5,0.1,0.6c0.1,0.2,0.3,0.3,0.5,0.3s0.5,0.1,0.9,0.2v0.5h-4.5
		v-0.5c0.6,0,1-0.1,1.2-0.3s0.3-0.4,0.3-0.8V59c0-0.3,0-0.6-0.1-0.7c-0.1-0.1-0.2-0.2-0.4-0.3c-0.2-0.1-0.5-0.1-1-0.1v-0.5l3-0.1
		v10.1l2.8-3.2c0.4-0.4,0.6-0.8,0.6-1c0-0.4-0.5-0.6-1.4-0.6V62.2z"/>
	<path d="M391.3,67.5H385c0,3.7,0.9,5.5,2.7,5.5c1,0,1.7-0.4,2.1-1.1c0.4-0.7,0.7-1.6,0.9-2.6l0.6,0.1c-0.2,1.2-0.5,2.2-1.1,3
		c-0.5,0.8-1.4,1.2-2.5,1.2c-0.6,0-1.2-0.1-1.8-0.4s-1-0.7-1.4-1.3c-0.4-0.6-0.7-1.2-0.9-1.9c-0.2-0.7-0.3-1.5-0.3-2.3
		c0-1,0.1-1.9,0.4-2.8c0.3-0.9,0.8-1.6,1.4-2.2c0.6-0.6,1.4-0.8,2.3-0.8c0.7,0,1.3,0.2,1.8,0.5s1,0.8,1.3,1.3
		c0.3,0.5,0.6,1.1,0.7,1.8C391.3,66.2,391.3,66.8,391.3,67.5z M385,66.9h4.6c0-0.8-0.1-1.6-0.2-2.3c-0.2-0.7-0.4-1.2-0.8-1.5
		s-0.8-0.6-1.3-0.6c-0.8,0-1.4,0.4-1.8,1.2C385.1,64.5,385,65.5,385,66.9z"/>
	<path d="M403.2,62.2h3.5v0.5c-0.4,0-0.7,0.1-0.9,0.2s-0.4,0.4-0.5,0.7l-3,9.8h-0.5l-2.3-8.1h0l-2.5,8.1h-0.5l-2.9-9.8
		c-0.1-0.3-0.2-0.6-0.4-0.7c-0.2-0.1-0.5-0.2-1-0.2v-0.5h4.3v0.5c-0.5,0-0.9,0.1-1.1,0.2c-0.2,0.1-0.3,0.3-0.3,0.6
		c0,0.2,0.1,0.6,0.3,1.2c0.2,0.6,0.8,2.7,1.8,6.3h0c0.9-2.8,1.4-4.4,1.5-4.9c0.2-0.5,0.3-0.9,0.3-1.2c0.1-0.3,0.1-0.5,0.1-0.7
		c0-0.1-0.1-0.3-0.2-0.6c-0.1-0.3-0.2-0.5-0.3-0.5c-0.2-0.2-0.6-0.3-1.1-0.3v-0.5h4.5v0.5c-0.6,0-1,0.1-1.2,0.2
		c-0.2,0.1-0.3,0.3-0.3,0.6c0,0.1,0,0.3,0.1,0.5s0.2,0.6,0.3,1.2s0.4,1.4,0.7,2.4c0.3,1,0.6,2.1,1,3.3h0c0.1-0.2,0.2-0.8,0.5-1.7
		c0.2-0.9,0.5-1.8,0.8-2.9c0.3-1,0.5-1.7,0.6-2.2c0.1-0.4,0.2-0.7,0.2-0.7c0-0.3-0.1-0.5-0.3-0.6s-0.5-0.1-1.1-0.1V62.2z"/>
	<path d="M415.6,67.5h-6.4c0,3.7,0.9,5.5,2.7,5.5c1,0,1.7-0.4,2.1-1.1c0.4-0.7,0.7-1.6,0.9-2.6l0.6,0.1c-0.2,1.2-0.5,2.2-1.1,3
		c-0.5,0.8-1.4,1.2-2.5,1.2c-0.6,0-1.2-0.1-1.8-0.4s-1-0.7-1.4-1.3c-0.4-0.6-0.7-1.2-0.9-1.9c-0.2-0.7-0.3-1.5-0.3-2.3
		c0-1,0.1-1.9,0.4-2.8c0.3-0.9,0.8-1.6,1.4-2.2c0.6-0.6,1.4-0.8,2.3-0.8c0.7,0,1.3,0.2,1.8,0.5s1,0.8,1.3,1.3
		c0.3,0.5,0.6,1.1,0.7,1.8C415.5,66.2,415.6,66.8,415.6,67.5z M409.2,66.9h4.6c0-0.8-0.1-1.6-0.2-2.3c-0.2-0.7-0.4-1.2-0.8-1.5
		s-0.8-0.6-1.3-0.6c-0.8,0-1.4,0.4-1.8,1.2C409.4,64.5,409.2,65.5,409.2,66.9z"/>
	<path d="M427,73.3l-2.8,0.1v-1.7h0c-0.2,0.5-0.6,0.9-1,1.3s-1,0.6-1.6,0.6c-0.7,0-1.4-0.3-1.9-0.8c-0.6-0.5-1-1.2-1.4-2.1
		s-0.5-1.9-0.5-3c0-1.1,0.2-2.1,0.5-3s0.8-1.6,1.4-2.1c0.6-0.5,1.2-0.8,1.9-0.8c0.6,0,1.1,0.2,1.5,0.5s0.7,0.8,1,1.4h0.1V59
		c0-0.3,0-0.6-0.1-0.7c-0.1-0.1-0.2-0.2-0.4-0.3c-0.2-0.1-0.5-0.1-1-0.1v-0.5l2.9-0.1v14.3c0,0.5,0.1,0.8,0.2,0.9
		c0.2,0.1,0.5,0.2,1.1,0.2V73.3z M419.3,67.8c0,1.7,0.2,3,0.6,3.9c0.4,0.9,1,1.3,1.7,1.3c0.5,0,0.9-0.2,1.3-0.5
		c0.4-0.4,0.7-0.9,0.9-1.7c0.2-0.8,0.3-1.8,0.3-3c0-1.2-0.1-2.1-0.3-2.9c-0.2-0.8-0.5-1.4-0.9-1.7c-0.4-0.4-0.8-0.6-1.3-0.6
		c-0.7,0-1.3,0.4-1.8,1.3C419.5,64.8,419.3,66.1,419.3,67.8z"/>
</g>
<polygon points="76,27.7 25.3,27.7 12.4,30.7 25.3,33.5 80,33.5 80.8,32.6 "/>
<polygon points="470,27.7 425,27.7 428,30.9 425,33.5 469.3,33.5 484.1,30.7 "/>
</svg>
